<svg width="1628" height="897" viewBox="0 0 1628 897" fill="none" xmlns="http://www.w3.org/2000/svg">
<path opacity="0.15" d="M-21.0769 509.939C-21.0769 509.939 8.03712 582.849 127.423 602.689C127.423 602.689 192.762 600.6 255.132 685.134C317.502 769.668 439.241 757.084 578.859 754.696C718.477 752.308 768.424 896.996 856.378 896.996C944.332 896.996 1033.72 752.117 1149.09 752.117C1264.47 752.117 1398.89 788.156 1505.58 661.944C1505.58 661.944 1529.08 619.907 1630.23 589.805C1731.38 559.703 1746.06 522.819 1746.06 522.819V0H-24.0469L-21.0769 509.939Z" fill="url(#paint0_linear_19_6)"/>
<defs>
<linearGradient id="paint0_linear_19_6" x1="1050.41" y1="1161.61" x2="951.83" y2="-283.726" gradientUnits="userSpaceOnUse">
<stop stop-color="#1CD8E9"/>
<stop offset="1" stop-color="#2532DE" stop-opacity="0.102"/>
</linearGradient>
</defs>
</svg>
